<svg xmlns="http://www.w3.org/2000/svg" width="840" height="220" viewBox="0 0 840 220" role="img" aria-label="Colin — robotics, engineering, and code"><title>Colin — robotics, engineering, and code</title>
 <defs><linearGradient id="base" x2="1" y2="1"><stop stop-color="#111820"/><stop offset="1" stop-color="#1d2940"/></linearGradient><linearGradient id="top"><stop stop-color="#f8faff"/><stop offset="1" stop-color="#c5d6f3"/></linearGradient><linearGradient id="front" x2="0" y2="1"><stop stop-color="#dce6f8"/><stop offset="1" stop-color="#a7b9d9"/></linearGradient><linearGradient id="side" x2="0" y2="1"><stop stop-color="#a8bfec"/><stop offset="1" stop-color="#6b87b6"/></linearGradient></defs>
 <rect x="1" y="1" width="838" height="218" rx="22" fill="url(#base)" stroke="#2c394a"/>
 <path d="M42 41h31" stroke="#9cbbff" stroke-width="4" stroke-linecap="round"/>
 <text x="88" y="49" font-family="Arial,sans-serif" font-size="19" letter-spacing="3" fill="#91a0b3">ROBOTICS · ENGINEERING · CODE</text>
 <text x="39" y="151" font-family="Arial,sans-serif" font-size="102" font-weight="700" letter-spacing="-5" fill="#f0f3f8">Colin.</text>
 <text x="44" y="190" font-family="Arial,sans-serif" font-size="21" fill="#91a0b3">Build. Test. Figure it out.</text>
 <ellipse cx="680" cy="186" rx="99" ry="12" fill="#080e18" opacity=".35"/>
 <g transform="translate(587 132)"><path d="M0 0 102 -35.699999999999996 173.4 0 71.39999999999999 35.699999999999996Z" fill="url(#top)"/><path d="M0 0 71.39999999999999 35.699999999999996 71.39999999999999 76.5 0 40.800000000000004Z" fill="url(#front)"/><path d="M71.39999999999999 35.699999999999996 173.4 0 173.4 40.800000000000004 71.39999999999999 76.5Z" fill="url(#side)"/></g><g transform="translate(610 93)"><path d="M0 0 90 -31.499999999999996 153 0 62.99999999999999 31.499999999999996Z" fill="url(#top)"/><path d="M0 0 62.99999999999999 31.499999999999996 62.99999999999999 67.5 0 36Z" fill="url(#front)"/><path d="M62.99999999999999 31.499999999999996 153 0 153 36 62.99999999999999 67.5Z" fill="url(#side)"/></g><g transform="translate(635 53)"><path d="M0 0 73 -25.549999999999997 124.1 0 51.099999999999994 25.549999999999997Z" fill="url(#top)"/><path d="M0 0 51.099999999999994 25.549999999999997 51.099999999999994 54.75 0 29.200000000000003Z" fill="url(#front)"/><path d="M51.099999999999994 25.549999999999997 124.1 0 124.1 29.200000000000003 51.099999999999994 54.75Z" fill="url(#side)"/></g>
 <circle cx="799" cy="43" r="4" fill="#9cbbff"/>
 </svg>
